<svg width="148" height="49" viewBox="0 0 148 49" fill="none" xmlns="http://www.w3.org/2000/svg">
<mask id="mask0_16898_173" style="mask-type:luminance" maskUnits="userSpaceOnUse" x="0" y="0" width="148" height="49">
<path d="M147.998 0H0.808594V49H147.998V0Z" fill="white"/>
</mask>
<g mask="url(#mask0_16898_173)">
<path d="M13.3477 5.17034L14.0299 0.126274H14.1318L16.1363 4.26434L18.1281 0.126274H18.2026L18.9109 5.17034H18.4345L17.9405 1.55945L16.1953 5.17034H16.0667L14.304 1.53116L13.8321 5.17034H13.3477ZM22.8872 0.126274H25.7067V0.61826H23.3811V2.1991H25.6859V2.6904H23.3811V4.67904H25.6859V5.17034H22.8872V0.126274ZM29.5736 5.17034V0.126274H30.5957C31.3323 0.126274 31.8677 0.186996 32.2002 0.30775C32.678 0.480255 33.052 0.776274 33.3207 1.19995C33.5895 1.62293 33.7242 2.12596 33.7242 2.71178C33.7242 3.21757 33.6183 3.66126 33.4045 4.04559C33.1914 4.42925 32.9139 4.71353 32.5742 4.8964C32.2337 5.07925 31.7551 5.17034 31.1413 5.17034H29.5736ZM30.0475 4.69284H30.6158C31.2947 4.69284 31.7645 4.64936 32.0279 4.56311C32.3972 4.43891 32.6887 4.21741 32.8998 3.89655C33.1117 3.575 33.2168 3.18238 33.2168 2.71868C33.2168 2.23291 33.1023 1.81613 32.8723 1.47182C32.6438 1.12611 32.3235 0.890128 31.9147 0.762474C31.607 0.665871 31.1004 0.61826 30.3946 0.61826H30.0475V4.69284ZM37.6261 0.126274H38.1199V5.17034H37.6261V0.126274ZM46.8499 1.05711L46.4612 1.36279C46.2474 1.07712 45.99 0.860457 45.6898 0.712793C45.3902 0.565818 45.0605 0.491986 44.7005 0.491986C44.3085 0.491986 43.9446 0.588589 43.6095 0.781795C43.2744 0.975001 43.0164 1.23514 42.8321 1.56083C42.6478 1.88652 42.5553 2.25361 42.5553 2.66004C42.5553 3.27622 42.761 3.79029 43.1733 4.20085C43.5847 4.61348 44.1034 4.81911 44.7314 4.81911C45.421 4.81911 45.9975 4.54311 46.4612 3.9904L46.8499 4.29262C46.6046 4.6121 46.2976 4.86051 45.9311 5.0344C45.5638 5.20898 45.1536 5.2973 44.7005 5.2973C43.8381 5.2973 43.1578 5.00335 42.6606 4.41545C42.2437 3.92001 42.0339 3.32038 42.0339 2.61933C42.0339 1.88169 42.2865 1.25998 42.7925 0.756264C43.2985 0.251858 43.9319 0 44.6938 0C45.1536 0 45.5684 0.0924629 45.9391 0.277389C46.309 0.463694 46.6133 0.723833 46.8499 1.05711ZM52.8702 0.126274L55.1683 5.17034H54.6396L53.8694 3.5129H51.7349L50.9702 5.17034H50.4214L52.7469 0.126274H52.8702ZM52.8085 1.18477L51.9614 3.02091H53.6524L52.8085 1.18477ZM58.9435 0.126274H59.4374V4.67904H61.3374V5.17034H58.9435V0.126274ZM69.7584 0.126274H70.7403C71.3032 0.126274 71.6838 0.151115 71.8802 0.201486C72.1617 0.272558 72.3916 0.418153 72.5699 0.63896C72.7495 0.859077 72.8386 1.13716 72.8386 1.47044C72.8386 1.80648 72.7515 2.08317 72.5765 2.30191C72.403 2.51996 72.1631 2.66624 71.8575 2.74214C71.6336 2.79735 71.216 2.82426 70.6042 2.82426H70.2523V5.17034H69.7584V0.126274ZM70.2523 0.61826V2.33228L71.0867 2.34263C71.4238 2.34263 71.6712 2.31157 71.8279 2.24809C71.9841 2.18461 72.1081 2.08387 72.1973 1.94379C72.2864 1.80303 72.3305 1.64501 72.3305 1.47182C72.3305 1.30345 72.2864 1.14751 72.1973 1.00674C72.1081 0.866667 71.9888 0.766614 71.8427 0.707272C71.6966 0.64724 71.4573 0.61826 71.1236 0.61826H70.2523ZM76.8336 0.126274H77.3276V4.67904H79.2282V5.17034H76.8336V0.126274ZM85.0348 0.126274L87.3329 5.17034H86.8034L86.034 3.5129H83.8995L83.1341 5.17034H82.5853L84.9108 0.126274H85.0348ZM84.9731 1.18477L84.126 3.02091H85.8168L84.9731 1.18477ZM90.6202 0.61826V0.126274H93.3163V0.61826H92.2192V5.17034H91.7179V0.61826H90.6202ZM97.0446 0.126274H99.5142V0.61826H97.5385V2.1991H99.5142V2.6904H97.5385V5.17034H97.0446V0.126274ZM105.734 0C106.48 0 107.104 0.255308 107.606 0.764544C108.108 1.27378 108.36 1.9017 108.36 2.64623C108.36 3.38525 108.11 4.0111 107.609 4.52516C107.106 5.03923 106.497 5.2973 105.774 5.2973C105.044 5.2973 104.429 5.04061 103.926 4.52861C103.425 4.01731 103.174 3.39767 103.174 2.67107C103.174 2.18599 103.287 1.73748 103.517 1.32278C103.745 0.909449 104.057 0.585139 104.452 0.351221C104.847 0.117304 105.275 0 105.734 0ZM105.757 0.491986C105.392 0.491986 105.047 0.588589 104.72 0.783175C104.395 0.977761 104.14 1.23859 103.955 1.56772C103.773 1.89825 103.681 2.26465 103.681 2.66969C103.681 3.26794 103.883 3.77372 104.29 4.18567C104.695 4.599 105.184 4.80531 105.757 4.80531C106.139 4.80531 106.492 4.71008 106.818 4.52103C107.143 4.33126 107.397 4.07112 107.578 3.74199C107.761 3.41285 107.852 3.04783 107.852 2.64486C107.852 2.24464 107.761 1.88238 107.578 1.55945C107.397 1.23652 107.14 0.977761 106.81 0.783175C106.479 0.588589 106.128 0.491986 105.757 0.491986ZM112.391 0.126274H113.375C113.923 0.126274 114.294 0.149735 114.488 0.195276C114.782 0.263588 115.02 0.409873 115.203 0.63551C115.387 0.860457 115.479 1.13784 115.479 1.46699C115.479 1.74093 115.415 1.98243 115.289 2.18944C115.163 2.39783 114.982 2.55515 114.747 2.66141C114.513 2.76767 114.189 2.8215 113.774 2.82426L115.547 5.17034H114.943L113.17 2.82426H112.885V5.17034H112.391V0.126274ZM112.885 0.61826V2.33228L113.737 2.33918C114.067 2.33918 114.31 2.30743 114.469 2.24326C114.626 2.17909 114.75 2.07697 114.838 1.93689C114.927 1.79613 114.971 1.63949 114.971 1.46492C114.971 1.29586 114.927 1.14129 114.836 1.00329C114.747 0.865287 114.629 0.766614 114.483 0.707272C114.338 0.64724 114.096 0.61826 113.756 0.61826H112.885ZM119.331 5.17034L120.014 0.126274H120.115L122.12 4.26434L124.112 0.126274H124.186L124.895 5.17034H124.418L123.924 1.55945L122.179 5.17034H122.05L120.288 1.53116L119.816 5.17034H119.331Z" fill="#EE4F4F"/>
<path fill-rule="evenodd" clip-rule="evenodd" d="M2.22656 10.637H3.93813V12.3541H2.22656V10.637Z" fill="#EE4F4F"/>
<path fill-rule="evenodd" clip-rule="evenodd" d="M5.07812 10.637H6.78969V12.3541H5.07812V10.637Z" fill="#EE4F4F"/>
<path fill-rule="evenodd" clip-rule="evenodd" d="M7.93359 10.637H9.64516V12.3541H7.93359V10.637Z" fill="#EE4F4F"/>
<path fill-rule="evenodd" clip-rule="evenodd" d="M143.16 2.64844H139.826H138.124V4.35531V6.81586V10.4143H139.826V4.35531H143.16C144.88 4.35531 146.294 5.77299 146.294 7.49807C146.294 9.22382 144.88 10.6421 143.16 10.6421H140.196H138.124H131.857H130.154H129.388H10.707V12.3491H129.388H130.154H131.857H138.124H139.826H140.196H143.16C145.82 12.3491 147.996 10.1662 147.996 7.49807C147.996 4.83057 145.82 2.64844 143.16 2.64844ZM131.857 10.4143V6.81586V4.35531V2.64844H130.154V10.4143H131.857ZM130.154 12.5762V15.6765C130.154 18.3447 132.33 20.5269 134.991 20.5269C137.65 20.5269 139.826 18.3447 139.826 15.6765V12.5762H138.124V15.6765C138.124 17.4023 136.712 18.8199 134.991 18.8199C133.27 18.8199 131.857 17.4023 131.857 15.6765V12.5762H130.154Z" fill="#EE4F4F"/>
<path d="M43.0469 18.543H45.9065V46.0325H56.9078V49.0024H43.0469V18.543Z" fill="#EE4F4F"/>
<path d="M60.2109 18.543H62.8511V49.0024H60.2109V18.543Z" fill="#EE4F4F"/>
<path d="M66.1523 49.0024V18.543H66.7677L85.7346 41.8396V18.543H88.5939V49.0024H87.9456L69.0915 25.9099V49.0024H66.1523Z" fill="#EE4F4F"/>
<path d="M91.2305 18.543H93.8706V49.0024H91.2305V18.543Z" fill="#EE4F4F"/>
<path fill-rule="evenodd" clip-rule="evenodd" d="M112.434 18.543C117.579 18.543 122.128 21.0834 124.894 24.9756L122.789 26.5803C120.51 23.3179 116.722 21.1834 112.434 21.1834C105.466 21.1834 99.818 26.8198 99.818 33.773C99.818 40.7256 105.466 46.3626 112.434 46.3626C116.702 46.3626 120.475 44.2474 122.758 41.0107L124.861 42.6153C122.093 46.4821 117.559 49.0024 112.434 49.0024C104.005 49.0024 97.1719 42.1839 97.1719 33.773C97.1719 25.3613 104.005 18.543 112.434 18.543Z" fill="#EE4F4F"/>
<path fill-rule="evenodd" clip-rule="evenodd" d="M27.9497 18.543C33.0948 18.543 37.6448 21.0834 40.4093 24.9756L38.3057 26.5803C36.0253 23.3179 32.2376 21.1834 27.9497 21.1834C20.9815 21.1834 15.3329 26.8198 15.3329 33.773C15.3329 40.7256 20.9815 46.3626 27.9497 46.3626C32.2174 46.3626 35.9903 44.2474 38.2734 41.0107L40.3771 42.6153C37.6092 46.4821 33.0746 49.0024 27.9497 49.0024C19.5206 49.0024 12.6875 42.1839 12.6875 33.773C12.6875 25.3613 19.5206 18.543 27.9497 18.543Z" fill="#EE4F4F"/>
</g>
</svg>
