<svg width="1920" height="1080" viewBox="0 0 1920 1080" fill="none" xmlns="http://www.w3.org/2000/svg">
<g clip-path="url(#clip0_16930_1903)">
<ellipse cx="930.025" cy="505.078" rx="9.00989" ry="9.59364" transform="rotate(-62 930.025 505.078)" fill="#EAEBEC"/>
<ellipse cx="788.247" cy="559.451" rx="9.00989" ry="9.59364" transform="rotate(-62 788.247 559.451)" fill="#EAEBEC"/>
<ellipse cx="586.026" cy="496.289" rx="12.5381" ry="13.3505" transform="rotate(-62 586.026 496.289)" fill="#EAEBEC"/>
<ellipse cx="588.919" cy="602.102" rx="7.66296" ry="7.76507" transform="rotate(-62 588.919 602.102)" fill="#EAEBEC"/>
<ellipse cx="701.567" cy="596.204" rx="7.66296" ry="7.76507" transform="rotate(-62 701.567 596.204)" fill="#EAEBEC"/>
<ellipse cx="792.551" cy="636.919" rx="7.66296" ry="7.76507" transform="rotate(-62 792.551 636.919)" fill="#EAEBEC"/>
<ellipse cx="871.509" cy="429.327" rx="9.00989" ry="9.59364" transform="rotate(-62 871.509 429.327)" fill="#EAEBEC"/>
<circle cx="922.976" cy="588.418" r="4.61379" transform="rotate(-14 922.976 588.418)" fill="#EAEBEC"/>
<circle cx="823.756" cy="597.311" r="9.22758" transform="rotate(-14 823.756 597.311)" fill="#EAEBEC"/>
<circle cx="836.397" cy="654.391" r="9.22758" transform="rotate(-14 836.397 654.391)" fill="#EAEBEC"/>
<circle cx="853.534" cy="691.329" r="4.61379" transform="rotate(-14 853.534 691.329)" fill="#EAEBEC"/>
<circle cx="818.823" cy="730.099" r="4.61379" transform="rotate(-14 818.823 730.099)" fill="#EAEBEC"/>
<circle cx="787.894" cy="682.332" r="4.61379" transform="rotate(-14 787.894 682.332)" fill="#EAEBEC"/>
<circle cx="643.151" cy="480.745" r="4.61379" transform="rotate(-14 643.151 480.745)" fill="#EAEBEC"/>
<circle cx="523.452" cy="426.584" r="4.61379" transform="rotate(-14 523.452 426.584)" fill="#EAEBEC"/>
<circle cx="523.382" cy="540.721" r="4.61379" transform="rotate(-14 523.382 540.721)" fill="#EAEBEC"/>
<circle cx="813.995" cy="691.67" r="4.61379" transform="rotate(-14 813.995 691.67)" fill="#EAEBEC"/>
<circle cx="711.62" cy="672.024" r="6.92069" transform="rotate(-14 711.62 672.024)" fill="#EAEBEC"/>
<circle cx="634.904" cy="768.027" r="7.68965" transform="rotate(-14 634.904 768.027)" fill="#EAEBEC"/>
<circle cx="585.333" cy="709.061" r="7.68965" transform="rotate(-14 585.333 709.061)" fill="#EAEBEC"/>
<path d="M790.206 558.124L871.415 429.303L931.235 503.942L790.206 558.124ZM790.206 558.124L825.802 599.177M922.044 587.862L931.607 505.434L825.802 599.177M825.802 599.177L836.957 653.456M825.802 599.177L702.525 597.421M836.957 653.456L702.525 597.421M836.957 653.456L813.433 692.607M702.525 597.421L711.803 672.773M702.525 597.421L589.128 603.504M813.433 692.607L787.143 682.519M813.433 692.607L852.414 690.02M813.433 692.607L818.072 730.283M711.803 672.773L635.092 765.602L586.264 709.621L711.803 672.773ZM711.803 672.773L589.128 603.504M589.128 603.504L583.974 497.008M583.974 497.008L647.022 479.703M583.974 497.008L522.774 540.797M583.974 497.008L523.22 424.98" stroke="#EAEBEC"/>
<path d="M937.855 489.982C947.027 494.859 950.704 505.763 946.159 514.312C941.614 522.86 930.517 525.909 921.345 521.032C912.173 516.155 908.495 505.25 913.04 496.702C917.586 488.153 928.682 485.105 937.855 489.982Z" stroke="#EAEBEC"/>
<path d="M878.585 414.266C887.22 418.858 890.68 429.121 886.403 437.165C882.126 445.209 871.682 448.08 863.048 443.489C854.413 438.898 850.953 428.634 855.23 420.59C859.507 412.546 869.951 409.675 878.585 414.266Z" stroke="#EAEBEC"/>
<circle cx="711.056" cy="672.957" r="13.3414" transform="rotate(-14 711.056 672.957)" stroke="#EAEBEC"/>
<ellipse cx="1747.46" cy="869.137" rx="14.841" ry="15.8025" transform="rotate(3 1747.46 869.137)" fill="#EAEBEC"/>
<ellipse cx="1635.4" cy="925.173" rx="9.07041" ry="9.19127" transform="rotate(3 1635.4 925.173)" fill="#EAEBEC"/>
<ellipse cx="1698.07" cy="1043.07" rx="9.07041" ry="9.19127" transform="rotate(3 1698.07 1043.07)" fill="#EAEBEC"/>
<circle cx="1792.71" cy="922.648" r="5.4612" transform="rotate(51 1792.71 922.648)" fill="#EAEBEC"/>
<circle cx="1790.94" cy="767.145" r="5.4612" transform="rotate(51 1790.94 767.145)" fill="#EAEBEC"/>
<circle cx="1668.46" cy="824.164" r="5.4612" transform="rotate(51 1668.46 824.164)" fill="#EAEBEC"/>
<circle cx="1480.4" cy="1057.51" r="9.102" transform="rotate(51 1480.4 1057.51)" fill="#EAEBEC"/>
<circle cx="1518.86" cy="974.832" r="9.102" transform="rotate(51 1518.86 974.832)" fill="#EAEBEC"/>
<path d="M1783.27 1119.11L1962.09 1141.79L1911.94 1243.3L1783.27 1119.11ZM1783.27 1119.11L1757.03 1177.83M1817.31 1275.42L1910.52 1244.45L1757.03 1177.83M1757.03 1177.83L1704.38 1216.95M1757.03 1177.83L1697.25 1044.71M1704.38 1216.95L1697.25 1044.71M1704.38 1216.95L1650.62 1211.3M1697.25 1044.71L1621.05 1092.36M1697.25 1044.71L1634 926.103M1650.62 1211.3L1648.29 1178.05M1650.62 1211.3L1672.89 1251.83M1650.62 1211.3L1612.52 1235.13M1621.05 1092.36L1483.1 1056.5L1518.72 976.114L1621.05 1092.36ZM1621.05 1092.36L1634 926.103M1634 926.103L1745.66 867.3M1745.66 867.3L1795.77 926.28M1745.66 867.3L1668.07 823.552M1745.66 867.3L1792.54 766.094" stroke="#EAEBEC"/>
<circle cx="1620.48" cy="1091.65" r="15.8836" transform="rotate(51 1620.48 1091.65)" stroke="#EAEBEC"/>
<g opacity="0.39">
<ellipse cx="1778.33" cy="851.15" rx="4.32003" ry="4.18363" transform="rotate(172 1778.33 851.15)" fill="#C2C3C5"/>
<ellipse cx="1768.13" cy="777.1" rx="4.32003" ry="4.18363" transform="rotate(172 1768.13 777.1)" fill="#C2C3C5"/>
<ellipse cx="1716.24" cy="783.566" rx="4.32003" ry="4.18363" transform="rotate(172 1716.24 783.566)" fill="#C2C3C5"/>
<ellipse cx="1714.11" cy="730.374" rx="4.32003" ry="4.18363" transform="rotate(172 1714.11 730.374)" fill="#C2C3C5"/>
<ellipse cx="1727" cy="705.415" rx="4.32003" ry="4.18363" transform="rotate(172 1727 705.415)" fill="#C2C3C5"/>
<ellipse cx="1670.77" cy="665.894" rx="4.32003" ry="4.18363" transform="rotate(172 1670.77 665.894)" fill="#C2C3C5"/>
<ellipse cx="1705.5" cy="513.632" rx="4.32003" ry="4.18363" transform="rotate(172 1705.5 513.632)" fill="#C2C3C5"/>
<ellipse cx="1671.8" cy="516.464" rx="4.32003" ry="4.18363" transform="rotate(172 1671.8 516.464)" fill="#C2C3C5"/>
<ellipse cx="1648.99" cy="414.92" rx="4.32003" ry="4.18363" transform="rotate(172 1648.99 414.92)" fill="#C2C3C5"/>
<ellipse cx="1721.4" cy="418.664" rx="4.32003" ry="4.18363" transform="rotate(172 1721.4 418.664)" fill="#C2C3C5"/>
<ellipse cx="1779.41" cy="370.72" rx="4.32003" ry="4.18363" transform="rotate(172 1779.41 370.72)" fill="#C2C3C5"/>
<path d="M1778.11 849.815L1768.15 777.15M1768.15 777.15L1718.76 783.807C1718.05 783.903 1717.4 783.388 1717.34 782.676L1712.79 732.359C1712.69 731.235 1714 730.557 1714.86 731.294L1768.15 777.15ZM1726.23 705.881L1671.65 665.837C1671.24 665.538 1671.05 665.025 1671.17 664.535L1706.68 514.587C1706.88 513.741 1706.18 512.952 1705.31 513.05L1672.15 516.804C1671.52 516.876 1670.93 516.455 1670.79 515.828L1648.64 416.166M1722.39 417.696L1779.24 371.371" stroke="#C2C3C5"/>
<path d="M1778.11 849.815L1768.15 777.15M1768.15 777.15L1718.49 783.843C1717.93 783.919 1717.41 783.509 1717.36 782.942L1712.73 731.729C1712.65 730.835 1713.7 730.295 1714.38 730.881L1768.15 777.15ZM1726.23 705.881L1671.51 665.736C1671.18 665.499 1671.03 665.091 1671.13 664.7L1706.76 514.233C1706.92 513.559 1706.36 512.931 1705.67 513.009L1671.92 516.83C1671.42 516.887 1670.95 516.552 1670.84 516.053L1648.64 416.166M1722.39 417.696L1779.24 371.371" stroke="#C2C3C5"/>
<path d="M1778.11 849.815L1768.15 777.15M1768.15 777.15L1718.49 783.843C1717.93 783.919 1717.41 783.509 1717.36 782.942L1712.73 731.729C1712.65 730.835 1713.7 730.295 1714.38 730.881L1768.15 777.15ZM1726.23 705.881L1671.51 665.736C1671.18 665.499 1671.03 665.091 1671.13 664.7L1706.76 514.233C1706.92 513.559 1706.36 512.931 1705.67 513.009L1671.92 516.83C1671.42 516.887 1670.95 516.552 1670.84 516.053L1648.64 416.166M1722.39 417.696L1779.24 371.371" stroke="#C2C3C5"/>
</g>
<g opacity="0.39">
<ellipse cx="248.823" cy="583.594" rx="4.32003" ry="4.18363" transform="rotate(148 248.823 583.594)" fill="#C2C3C5"/>
<ellipse cx="209.385" cy="520.094" rx="4.32003" ry="4.18363" transform="rotate(148 209.385 520.094)" fill="#C2C3C5"/>
<ellipse cx="164.612" cy="547.107" rx="4.32003" ry="4.18363" transform="rotate(148 164.612 547.107)" fill="#C2C3C5"/>
<ellipse cx="141.033" cy="499.379" rx="4.32003" ry="4.18363" transform="rotate(148 141.033 499.379)" fill="#C2C3C5"/>
<ellipse cx="142.651" cy="471.337" rx="4.32003" ry="4.18363" transform="rotate(148 142.651 471.337)" fill="#C2C3C5"/>
<ellipse cx="75.2132" cy="458.102" rx="4.32003" ry="4.18363" transform="rotate(148 75.2132 458.102)" fill="#C2C3C5"/>
<ellipse cx="45.01" cy="304.878" rx="4.32003" ry="4.18363" transform="rotate(148 45.01 304.878)" fill="#C2C3C5"/>
<ellipse cx="15.3733" cy="321.173" rx="4.32003" ry="4.18363" transform="rotate(148 15.3733 321.173)" fill="#C2C3C5"/>
<ellipse cx="20.9085" cy="211.652" rx="4.32003" ry="4.18363" transform="rotate(148 20.9085 211.652)" fill="#C2C3C5"/>
<ellipse cx="54.3968" cy="144.261" rx="4.32003" ry="4.18363" transform="rotate(148 54.3968 144.261)" fill="#C2C3C5"/>
<path d="M248.081 582.462L209.421 520.133M209.421 520.133L167.01 546.303C166.401 546.679 165.602 546.471 165.253 545.847L140.631 501.73C140.081 500.745 141.009 499.59 142.089 499.915L209.421 520.133ZM142.14 472.075L75.9877 457.694C75.4947 457.587 75.1136 457.195 75.0202 456.699L46.4717 305.272C46.3106 304.417 45.3504 303.981 44.6006 304.422L15.835 321.339C15.2813 321.664 14.5712 321.52 14.1888 321.004L-46.5795 238.966M21.4148 210.368L54.5108 144.923" stroke="#C2C3C5"/>
<path d="M248.081 582.462L209.421 520.133M209.421 520.133L166.782 546.444C166.297 546.743 165.661 546.578 165.383 546.08L140.323 501.178C139.885 500.394 140.624 499.475 141.484 499.733L209.421 520.133ZM142.14 472.075L75.8218 457.658C75.4293 457.573 75.126 457.261 75.0516 456.866L46.4042 304.914C46.2759 304.234 45.5115 303.886 44.9146 304.237L15.6364 321.455C15.1957 321.715 14.6303 321.599 14.326 321.189L-46.5795 238.966M21.4148 210.368L54.5108 144.923" stroke="#C2C3C5"/>
<path d="M248.081 582.462L209.421 520.133M209.421 520.133L166.782 546.444C166.297 546.743 165.661 546.578 165.383 546.08L140.323 501.178C139.885 500.394 140.624 499.475 141.484 499.733L209.421 520.133ZM142.14 472.075L75.8218 457.658C75.4293 457.573 75.126 457.261 75.0516 456.866L46.4042 304.914C46.2759 304.234 45.5115 303.886 44.9146 304.237L15.6364 321.455C15.1957 321.715 14.6303 321.599 14.326 321.189L-46.5795 238.966M21.4148 210.368L54.5108 144.923" stroke="#C2C3C5"/>
</g>
<g opacity="0.39">
<ellipse cx="174.187" cy="67.0564" rx="4.32003" ry="4.18363" transform="rotate(-4 174.187 67.0564)" fill="#C2C3C5"/>
<ellipse cx="208.008" cy="66.5835" rx="4.32003" ry="4.18363" transform="rotate(-4 208.008 66.5835)" fill="#C2C3C5"/>
<ellipse cx="223.679" cy="169.472" rx="4.32003" ry="4.18363" transform="rotate(-4 223.679 169.472)" fill="#C2C3C5"/>
<ellipse cx="151.699" cy="160.685" rx="4.32003" ry="4.18363" transform="rotate(-4 151.699 160.685)" fill="#C2C3C5"/>
<ellipse cx="90.492" cy="204.465" rx="4.32003" ry="4.18363" transform="rotate(-4 90.492 204.465)" fill="#C2C3C5"/>
<path d="M125.203 -273.372L130.075 -200.188M130.075 -200.188L179.809 -203.384C180.523 -203.43 181.131 -202.872 181.146 -202.156L182.174 -151.645C182.197 -150.516 180.836 -149.932 180.034 -150.726L130.075 -200.188ZM166.92 -126.169L218.577 -82.4147C218.962 -82.0886 219.115 -81.5638 218.964 -81.0821L173.08 66.0227C172.821 66.8532 173.464 67.6891 174.333 67.6518L207.674 66.22C208.316 66.1924 208.875 66.6535 208.97 67.2887L224.111 168.253M150.649 161.582L90.7029 203.829" stroke="#C2C3C5"/>
<path d="M125.203 -273.372L130.075 -200.188M130.075 -200.188L180.076 -203.401C180.645 -203.438 181.129 -202.993 181.14 -202.424L182.187 -151.013C182.205 -150.114 181.122 -149.65 180.484 -150.282L130.075 -200.188ZM166.92 -126.169L218.707 -82.3049C219.013 -82.0453 219.134 -81.6276 219.015 -81.2441L172.972 66.3706C172.766 67.0316 173.278 67.6971 173.969 67.6674L207.904 66.2101C208.415 66.1882 208.86 66.5552 208.936 67.0609L224.111 168.253M150.649 161.582L90.7029 203.829" stroke="#C2C3C5"/>
<path d="M125.203 -273.372L130.075 -200.188M130.075 -200.188L180.076 -203.401C180.645 -203.438 181.129 -202.993 181.14 -202.424L182.187 -151.013C182.205 -150.114 181.122 -149.65 180.484 -150.282L130.075 -200.188ZM166.92 -126.169L218.707 -82.3049C219.013 -82.0453 219.134 -81.6276 219.015 -81.2441L172.972 66.3706C172.766 67.0316 173.278 67.6971 173.969 67.6674L207.904 66.2101C208.415 66.1882 208.86 66.5552 208.936 67.0609L224.111 168.253M150.649 161.582L90.7029 203.829" stroke="#C2C3C5"/>
</g>
<ellipse cx="452.504" cy="1006.55" rx="10.6647" ry="11.3557" transform="rotate(-13 452.504 1006.55)" fill="#EAEBEC"/>
<ellipse cx="293.836" cy="922.127" rx="10.6647" ry="11.3557" transform="rotate(-13 293.836 922.127)" fill="#EAEBEC"/>
<ellipse cx="193.222" cy="692.425" rx="14.841" ry="15.8025" transform="rotate(-13 193.222 692.425)" fill="#EAEBEC"/>
<ellipse cx="100.945" cy="777.18" rx="9.07041" ry="9.19127" transform="rotate(-13 100.945 777.18)" fill="#EAEBEC"/>
<ellipse cx="193.691" cy="873.234" rx="9.07041" ry="9.19127" transform="rotate(-13 193.691 873.234)" fill="#EAEBEC"/>
<ellipse cx="227.976" cy="986.13" rx="9.07041" ry="9.19127" transform="rotate(-13 227.976 986.13)" fill="#EAEBEC"/>
<ellipse cx="474.735" cy="895.458" rx="10.6647" ry="11.3557" transform="rotate(-13 474.735 895.458)" fill="#EAEBEC"/>
<circle cx="372.583" cy="1064.98" r="5.4612" transform="rotate(35 372.583 1064.98)" fill="#EAEBEC"/>
<circle cx="287.585" cy="983.244" r="10.9224" transform="rotate(35 287.585 983.244)" fill="#EAEBEC"/>
<circle cx="246.413" cy="1038.87" r="10.9224" transform="rotate(35 246.413 1038.87)" fill="#EAEBEC"/>
<circle cx="226.724" cy="1082.86" r="5.4612" transform="rotate(35 226.724 1082.86)" fill="#EAEBEC"/>
<circle cx="165.134" cy="1081.96" r="5.4612" transform="rotate(35 165.134 1081.96)" fill="#EAEBEC"/>
<circle cx="183.786" cy="1017.23" r="5.4612" transform="rotate(35 183.786 1017.23)" fill="#EAEBEC"/>
<circle cx="251.47" cy="731.39" r="5.4612" transform="rotate(35 251.47 731.39)" fill="#EAEBEC"/>
<circle cx="206.9" cy="582.4" r="5.4612" transform="rotate(35 206.9 582.4)" fill="#EAEBEC"/>
<circle cx="104.884" cy="670.969" r="5.4612" transform="rotate(35 104.884 670.969)" fill="#EAEBEC"/>
<circle cx="195.712" cy="1047.8" r="5.4612" transform="rotate(35 195.712 1047.8)" fill="#EAEBEC"/>
<circle cx="133.762" cy="941.089" r="8.1918" transform="rotate(35 133.762 941.089)" fill="#EAEBEC"/>
<circle cx="-11.5695" cy="947.112" r="9.102" transform="rotate(35 -11.5695 947.112)" fill="#EAEBEC"/>
<circle cx="2.61023" cy="857.036" r="9.102" transform="rotate(35 2.61023 857.036)" fill="#EAEBEC"/>
<path d="M296.542 922.847L474.685 895.357L454.462 1006.76L296.542 922.847ZM296.542 922.847L287.51 986.526M372.356 1063.71L453.418 1008.25L287.51 986.526M287.51 986.526L247.684 1038.64M287.51 986.526L193.348 875.035M247.684 1038.64L193.348 875.035M247.684 1038.64L194.443 1048.03M193.348 875.035L133.238 941.839M193.348 875.035L99.8552 778.459M194.443 1048.03L183.038 1016.71M194.443 1048.03L227.024 1080.84M194.443 1048.03L164.388 1081.43M133.238 941.839L-9.25881 945.398L2.83309 858.306L133.238 941.839ZM133.238 941.839L99.8552 778.459M99.8552 778.459L190.988 691.154M190.988 691.154L255.407 734.039M190.988 691.154L104.344 670.487M190.988 691.154L208.153 580.947" stroke="#EAEBEC"/>
<path d="M472.164 1001.81C474.94 1013.83 468.031 1025.64 456.81 1028.23C445.589 1030.82 434.203 1023.24 431.427 1011.21C428.65 999.188 435.56 987.381 446.781 984.79C458.002 982.2 469.388 989.783 472.164 1001.81Z" stroke="#EAEBEC"/>
<path d="M493.776 890.062C496.39 901.385 489.884 912.499 479.322 914.938C468.76 917.376 458.04 910.239 455.426 898.916C452.812 887.593 459.318 876.478 469.88 874.04C480.442 871.602 491.162 878.739 493.776 890.062Z" stroke="#EAEBEC"/>
<circle cx="132.492" cy="941.313" r="15.8836" transform="rotate(35 132.492 941.313)" stroke="#EAEBEC"/>
<ellipse cx="1169.02" cy="934.077" rx="9.00989" ry="9.59364" transform="rotate(-62 1169.02 934.077)" fill="#EAEBEC"/>
<ellipse cx="1027.25" cy="988.451" rx="9.00989" ry="9.59364" transform="rotate(-62 1027.25 988.451)" fill="#EAEBEC"/>
<ellipse cx="825.026" cy="925.289" rx="12.5381" ry="13.3505" transform="rotate(-62 825.026 925.289)" fill="#EAEBEC"/>
<ellipse cx="827.919" cy="1031.1" rx="7.66296" ry="7.76507" transform="rotate(-62 827.919 1031.1)" fill="#EAEBEC"/>
<ellipse cx="940.567" cy="1025.2" rx="7.66296" ry="7.76507" transform="rotate(-62 940.567 1025.2)" fill="#EAEBEC"/>
<ellipse cx="1031.55" cy="1065.92" rx="7.66296" ry="7.76507" transform="rotate(-62 1031.55 1065.92)" fill="#EAEBEC"/>
<ellipse cx="1110.51" cy="858.327" rx="9.00989" ry="9.59364" transform="rotate(-62 1110.51 858.327)" fill="#EAEBEC"/>
<circle cx="1161.98" cy="1017.42" r="4.61379" transform="rotate(-14 1161.98 1017.42)" fill="#EAEBEC"/>
<circle cx="1062.76" cy="1026.31" r="9.22758" transform="rotate(-14 1062.76 1026.31)" fill="#EAEBEC"/>
<circle cx="1075.4" cy="1083.39" r="9.22758" transform="rotate(-14 1075.4 1083.39)" fill="#EAEBEC"/>
<circle cx="882.151" cy="909.745" r="4.61379" transform="rotate(-14 882.151 909.745)" fill="#EAEBEC"/>
<circle cx="762.452" cy="855.583" r="4.61379" transform="rotate(-14 762.452 855.583)" fill="#EAEBEC"/>
<circle cx="762.382" cy="969.72" r="4.61379" transform="rotate(-14 762.382 969.72)" fill="#EAEBEC"/>
<path d="M1029.21 987.124L1110.42 858.303L1170.24 932.941L1029.21 987.124ZM1029.21 987.124L1064.8 1028.18M1161.04 1016.86L1170.61 934.434L1064.8 1028.18M1064.8 1028.18L1075.96 1082.46M1064.8 1028.18L941.525 1026.42M1075.96 1082.46L941.525 1026.42M1075.96 1082.46L1052.43 1121.61M941.525 1026.42L950.803 1101.77M941.525 1026.42L828.128 1032.5M1052.43 1121.61L1026.14 1111.52M1052.43 1121.61L1091.41 1119.02M1052.43 1121.61L1057.07 1159.28M950.803 1101.77L874.092 1194.6L825.264 1138.62L950.803 1101.77ZM950.803 1101.77L828.128 1032.5M828.128 1032.5L822.974 926.008M822.974 926.008L886.022 908.703M822.974 926.008L761.774 969.797M822.974 926.008L762.22 853.98" stroke="#EAEBEC"/>
<path d="M1176.85 918.981C1186.03 923.858 1189.7 934.763 1185.16 943.311C1180.61 951.86 1169.52 954.908 1160.34 950.031C1151.17 945.154 1147.5 934.25 1152.04 925.702C1156.59 917.153 1167.68 914.105 1176.85 918.981Z" stroke="#EAEBEC"/>
<path d="M1117.59 843.266C1126.22 847.857 1129.68 858.121 1125.4 866.165C1121.13 874.208 1110.68 877.079 1102.05 872.488C1093.41 867.897 1089.95 857.634 1094.23 849.59C1098.51 841.546 1108.95 838.675 1117.59 843.266Z" stroke="#EAEBEC"/>
<ellipse cx="1696.67" cy="323.992" rx="9.00989" ry="9.59364" transform="rotate(95 1696.67 323.992)" fill="#EAEBEC"/>
<ellipse cx="1805.93" cy="218.544" rx="9.00989" ry="9.59364" transform="rotate(95 1805.93 218.544)" fill="#EAEBEC"/>
<ellipse cx="1871.35" cy="150.845" rx="7.66296" ry="7.76507" transform="rotate(95 1871.35 150.845)" fill="#EAEBEC"/>
<ellipse cx="1771.69" cy="148.917" rx="7.66296" ry="7.76507" transform="rotate(95 1771.69 148.917)" fill="#EAEBEC"/>
<ellipse cx="1780.13" cy="370.857" rx="9.00989" ry="9.59364" transform="rotate(95 1780.13 370.857)" fill="#EAEBEC"/>
<circle cx="1670.59" cy="244.523" r="4.61379" transform="rotate(143 1670.59 244.523)" fill="#EAEBEC"/>
<circle cx="1758.45" cy="197.567" r="9.22758" transform="rotate(143 1758.45 197.567)" fill="#EAEBEC"/>
<circle cx="1724.51" cy="149.966" r="9.22758" transform="rotate(143 1724.51 149.966)" fill="#EAEBEC"/>
<circle cx="1694.3" cy="122.66" r="4.61379" transform="rotate(143 1694.3 122.66)" fill="#EAEBEC"/>
<circle cx="1711.1" cy="73.4081" r="4.61379" transform="rotate(143 1711.1 73.4081)" fill="#EAEBEC"/>
<circle cx="1758.24" cy="105.293" r="4.61379" transform="rotate(143 1758.24 105.293)" fill="#EAEBEC"/>
<circle cx="1730.56" cy="106.897" r="4.61379" transform="rotate(143 1730.56 106.897)" fill="#EAEBEC"/>
<circle cx="1832.48" cy="84.9788" r="6.92069" transform="rotate(143 1832.48 84.9788)" fill="#EAEBEC"/>
<path d="M1804.64 220.532L1780.22 370.843L1695.99 325.512L1804.64 220.532ZM1804.64 220.532L1755.83 196.651M1671.66 244.672L1695.07 324.283L1755.83 196.651M1755.83 196.651L1724.36 151.046M1755.83 196.651L1870 150.1M1724.36 151.046L1870 150.1M1724.36 151.046L1730.71 105.816M1870 150.1L1832.01 84.3623M1870 150.1L1972 100.193M1730.71 105.816L1758.85 104.829M1730.71 105.816L1695.84 123.427M1730.71 105.816L1711.72 72.9472M1832.01 84.3623L1866.36 -31.0607L1933.18 1.39176L1832.01 84.3623ZM1832.01 84.3623L1972 100.193M1972 100.193L2018.36 196.208M2018.36 196.208L1967.08 236.773M2018.36 196.208L2057.58 131.987M2018.36 196.208L2102.43 238.772" stroke="#EAEBEC"/>
<path d="M1695.35 340.948C1685.01 340.043 1677.36 331.442 1678.2 321.797C1679.05 312.152 1688.07 305.01 1698.42 305.916C1708.77 306.821 1716.41 315.421 1715.57 325.066C1714.73 334.711 1705.7 341.853 1695.35 340.948Z" stroke="#EAEBEC"/>
<path d="M1779.5 387.485C1769.76 386.633 1762.56 378.537 1763.36 369.461C1764.15 360.386 1772.64 353.663 1782.38 354.515C1792.13 355.367 1799.32 363.463 1798.53 372.538C1797.73 381.614 1789.24 388.337 1779.5 387.485Z" stroke="#EAEBEC"/>
<circle cx="1832.63" cy="83.901" r="13.3414" transform="rotate(143 1832.63 83.901)" stroke="#EAEBEC"/>
</g>
<defs>
<clipPath id="clip0_16930_1903">
<rect width="1920" height="1080" fill="white"/>
</clipPath>
</defs>
</svg>
