<svg width="442" height="319" viewBox="0 0 442 319" fill="none" xmlns="http://www.w3.org/2000/svg">
<path d="M297.185 83.2672C256.593 42.8603 190.781 42.8603 150.189 83.2672C109.599 123.674 109.599 189.187 150.189 229.594C190.781 270.001 256.593 270.001 297.185 229.594C337.776 189.187 337.776 123.674 297.185 83.2672Z" stroke="#7AB8EB" stroke-width="39"/>
<path d="M297.178 229.594C264.258 262.365 214.751 268.557 175.559 248.174C166.426 243.423 157.855 237.231 150.184 229.594" stroke="#97DA97" stroke-width="39"/>
<path d="M133.642 104.696C110.666 144.265 116.182 195.74 150.189 229.594C157.861 237.23 166.434 243.423 175.566 248.174" stroke="#FACB86" stroke-width="39"/>
<path d="M133.641 104.696C138.089 97.0355 143.605 89.8219 150.189 83.2673C190.78 42.8603 256.592 42.8603 297.184 83.2673C306.277 92.3195 313.334 102.631 318.352 113.638" stroke="#E78683" stroke-width="39"/>
<path d="M253.444 126.811C236.657 110.099 209.437 110.099 192.649 126.811C175.862 143.522 175.862 170.617 192.649 187.329C209.437 204.04 236.657 204.04 253.444 187.329C270.232 170.617 270.232 143.522 253.444 126.811Z" stroke="#E78683" stroke-width="39"/>
<path d="M253.443 126.811C270.231 143.522 270.231 170.617 253.443 187.329C236.656 204.04 209.436 204.04 192.648 187.329" stroke="#7AB8EB" stroke-width="39"/>
<path d="M192.648 187.328C203.673 198.304 219.198 202.071 233.313 198.63" stroke="#97DA97" stroke-width="39"/>
<path d="M192.65 126.811C181.959 137.453 178.075 152.309 181.002 166.011C182.672 173.823 186.555 181.261 192.65 187.329" stroke="#FACB86" stroke-width="39"/>
<path d="M440.555 224.132C441.263 224.132 441.838 223.561 441.838 222.855C441.838 222.15 441.263 221.578 440.555 221.578V224.132ZM326.074 185.428L362.798 222.606L364.628 220.813L327.905 183.638L326.074 185.428ZM366.458 224.132H440.555V221.578H366.458V224.132ZM362.798 222.606C363.763 223.582 365.083 224.132 366.458 224.132V221.578C365.771 221.578 365.11 221.303 364.628 220.813L362.798 222.606Z" fill="#7AB8EB"/>
<path d="M342.391 318.659C343.099 318.659 343.674 318.088 343.674 317.382C343.674 316.677 343.099 316.104 342.391 316.104V318.659ZM227.91 279.955L264.634 317.133L266.464 315.34L229.74 278.165L227.91 279.955ZM268.293 318.659H342.391V316.104H268.293V318.659ZM264.634 317.133C265.599 318.109 266.917 318.659 268.293 318.659V316.104C267.605 316.104 266.946 315.83 266.464 315.34L264.634 317.133Z" fill="#97DA97"/>
<path d="M371.259 0.589111C371.967 0.589111 372.542 1.16096 372.542 1.86649C372.542 2.57201 371.967 3.14388 371.259 3.14388V0.589111ZM222.773 39.293L259.496 2.11612L261.326 3.90738L224.602 41.0833L222.773 39.293ZM263.156 0.589111H371.259V3.14388H263.156V0.589111ZM259.496 2.11612C260.462 1.13936 261.781 0.589111 263.156 0.589111V3.14388C262.468 3.14388 261.809 3.419 261.326 3.90738L259.496 2.11612Z" fill="#E78683"/>
<path d="M1.68949 224.132C0.980783 224.132 0.40625 223.561 0.40625 222.855C0.40625 222.15 0.980783 221.578 1.68949 221.578V224.132ZM116.17 185.428L79.4462 222.606L77.6163 220.813L114.34 183.638L116.17 185.428ZM75.7863 224.132H1.68949V221.578H75.7863V224.132ZM79.4462 222.606C78.4812 223.582 77.1626 224.132 75.7863 224.132V221.578C76.4743 221.578 77.1337 221.303 77.6163 220.813L79.4462 222.606Z" fill="#FACB86"/>
<path d="M434.14 184.533H377.677C374.134 184.533 371.262 187.393 371.262 190.92V211.358C371.262 214.886 374.134 217.745 377.677 217.745H434.14C437.684 217.745 440.555 214.886 440.555 211.358V190.92C440.555 187.393 437.684 184.533 434.14 184.533Z" fill="#7AB8EB"/>
<path d="M389.586 206.249L395.407 200.151C395.705 199.829 395.964 199.519 396.179 199.221C396.394 198.923 396.556 198.625 396.664 198.327C396.771 198.029 396.825 197.712 396.825 197.379C396.825 197.14 396.778 196.907 396.682 196.681C396.599 196.443 396.46 196.228 396.269 196.037C396.089 195.847 395.867 195.698 395.604 195.59C395.341 195.472 395.035 195.412 394.688 195.412C394.209 195.412 393.796 195.526 393.448 195.751C393.1 195.966 392.831 196.281 392.64 196.699C392.461 197.118 392.37 197.599 392.37 198.148H390.268C390.268 197.253 390.437 196.46 390.772 195.769C391.119 195.066 391.622 194.518 392.28 194.123C392.952 193.719 393.765 193.516 394.724 193.516C395.454 193.516 396.089 193.635 396.629 193.874C397.167 194.099 397.61 194.399 397.957 194.768C398.316 195.137 398.58 195.543 398.748 195.984C398.927 196.425 399.017 196.853 399.017 197.272C399.017 197.927 398.856 198.559 398.533 199.167C398.221 199.775 397.808 200.318 397.292 200.795L393.718 204.282H399.179V206.249H389.586ZM400.445 206.249L406.266 200.151C406.565 199.829 406.823 199.519 407.039 199.221C407.254 198.923 407.417 198.625 407.524 198.327C407.632 198.029 407.686 197.712 407.686 197.379C407.686 197.14 407.637 196.907 407.542 196.681C407.458 196.443 407.32 196.228 407.129 196.037C406.948 195.847 406.726 195.698 406.464 195.59C406.201 195.472 405.896 195.412 405.547 195.412C405.07 195.412 404.656 195.526 404.308 195.751C403.961 195.966 403.692 196.281 403.499 196.699C403.32 197.118 403.23 197.599 403.23 198.148H401.128C401.128 197.253 401.296 196.46 401.631 195.769C401.98 195.066 402.482 194.518 403.14 194.123C403.811 193.719 404.626 193.516 405.584 193.516C406.313 193.516 406.948 193.635 407.488 193.874C408.026 194.099 408.469 194.399 408.818 194.768C409.177 195.137 409.44 195.543 409.608 195.984C409.788 196.425 409.877 196.853 409.877 197.272C409.877 197.927 409.715 198.559 409.392 199.167C409.08 199.775 408.667 200.318 408.153 200.795L404.577 204.282H410.038V206.249H400.445ZM420.934 202.172C420.934 202.898 420.809 203.531 420.557 204.067C420.306 204.604 419.958 205.051 419.516 205.409C419.072 205.755 418.568 206.017 418.007 206.195C417.455 206.363 416.875 206.446 416.264 206.446C415.497 206.446 414.82 206.344 414.233 206.142C413.647 205.939 413.138 205.671 412.707 205.336C412.275 204.99 411.898 204.621 411.575 204.228L412.815 202.709C413.067 203.029 413.359 203.327 413.695 203.602C414.041 203.864 414.414 204.079 414.809 204.247C415.204 204.401 415.599 204.479 415.995 204.479C416.57 204.479 417.054 204.382 417.45 204.193C417.844 204.002 418.144 203.721 418.348 203.352C418.563 202.982 418.672 202.548 418.672 202.047C418.672 201.534 418.551 201.098 418.313 200.741C418.072 200.383 417.749 200.109 417.342 199.919C416.934 199.728 416.485 199.633 415.995 199.633C415.636 199.633 415.276 199.662 414.917 199.721C414.568 199.768 414.209 199.865 413.839 200.007C413.48 200.151 413.084 200.353 412.653 200.616L414.36 193.73H420.809V195.59H415.959L415.169 198.452C415.478 198.297 415.803 198.183 416.138 198.112C416.473 198.041 416.815 198.005 417.162 198.005C417.856 198.005 418.492 198.176 419.066 198.523C419.641 198.869 420.096 199.352 420.432 199.972C420.767 200.591 420.934 201.325 420.934 202.172Z" fill="white"/>
<path d="M335.975 279.699H279.512C276.324 279.699 273.738 282.272 273.738 285.447V305.885C273.738 309.059 276.324 311.633 279.512 311.633H335.975C339.164 311.633 341.749 309.059 341.749 305.885V285.447C341.749 282.272 339.164 279.699 335.975 279.699Z" fill="#97DA97"/>
<path d="M335.975 279.699H279.512C276.324 279.699 273.738 282.272 273.738 285.447V305.885C273.738 309.059 276.324 311.633 279.512 311.633H335.975C339.164 311.633 341.749 309.059 341.749 305.885V285.447C341.749 282.272 339.164 279.699 335.975 279.699Z" stroke="#97DA97"/>
<path d="M291.414 300.776L297.235 294.678C297.535 294.356 297.792 294.046 298.007 293.748C298.224 293.45 298.385 293.15 298.493 292.854C298.601 292.556 298.655 292.239 298.655 291.905C298.655 291.666 298.608 291.434 298.511 291.208C298.427 290.97 298.289 290.755 298.097 290.564C297.918 290.374 297.696 290.225 297.433 290.117C297.17 289.998 296.865 289.939 296.517 289.939C296.038 289.939 295.625 290.052 295.277 290.278C294.929 290.493 294.66 290.808 294.469 291.226C294.289 291.643 294.2 292.126 294.2 292.674H292.098C292.098 291.78 292.266 290.987 292.6 290.296C292.948 289.593 293.452 289.044 294.11 288.65C294.78 288.245 295.594 288.042 296.552 288.042C297.283 288.042 297.918 288.162 298.457 288.401C298.996 288.626 299.439 288.926 299.786 289.295C300.146 289.664 300.408 290.07 300.576 290.511C300.757 290.951 300.847 291.38 300.847 291.798C300.847 292.454 300.684 293.086 300.361 293.694C300.049 294.302 299.636 294.844 299.122 295.32L295.547 298.809H301.008V300.776H291.414ZM302.275 300.776L308.096 294.678C308.394 294.356 308.653 294.046 308.868 293.748C309.083 293.45 309.245 293.15 309.353 292.854C309.46 292.556 309.514 292.239 309.514 291.905C309.514 291.666 309.467 291.434 309.371 291.208C309.288 290.97 309.149 290.755 308.958 290.564C308.778 290.374 308.556 290.225 308.293 290.117C308.03 289.998 307.724 289.939 307.377 289.939C306.898 289.939 306.485 290.052 306.137 290.278C305.789 290.493 305.52 290.808 305.329 291.226C305.15 291.643 305.059 292.126 305.059 292.674H302.957C302.957 291.78 303.125 290.987 303.461 290.296C303.808 289.593 304.311 289.044 304.969 288.65C305.641 288.245 306.454 288.042 307.413 288.042C308.143 288.042 308.778 288.162 309.318 288.401C309.856 288.626 310.299 288.926 310.646 289.295C311.005 289.664 311.269 290.07 311.437 290.511C311.616 290.951 311.706 291.38 311.706 291.798C311.706 292.454 311.545 293.086 311.222 293.694C310.91 294.302 310.496 294.844 309.981 295.32L306.407 298.809H311.868V300.776H302.275ZM322.764 296.699C322.764 297.425 322.639 298.057 322.387 298.594C322.135 299.131 321.788 299.578 321.345 299.935C320.901 300.281 320.398 300.543 319.835 300.722C319.283 300.889 318.703 300.972 318.092 300.972C317.325 300.972 316.65 300.871 316.063 300.669C315.475 300.465 314.967 300.198 314.535 299.863C314.105 299.517 313.728 299.148 313.403 298.755L314.644 297.234C314.895 297.556 315.188 297.854 315.524 298.129C315.87 298.391 316.243 298.606 316.637 298.772C317.033 298.927 317.429 299.004 317.823 299.004C318.398 299.004 318.884 298.909 319.279 298.719C319.674 298.528 319.972 298.248 320.177 297.878C320.392 297.509 320.5 297.073 320.5 296.573C320.5 296.061 320.38 295.625 320.141 295.268C319.901 294.91 319.578 294.635 319.17 294.445C318.763 294.255 318.313 294.158 317.823 294.158C317.464 294.158 317.104 294.188 316.745 294.248C316.398 294.295 316.039 294.392 315.667 294.534C315.308 294.678 314.913 294.88 314.481 295.142L316.189 288.257H322.639V290.117H317.788L316.997 292.979C317.308 292.824 317.631 292.71 317.967 292.639C318.302 292.567 318.644 292.532 318.991 292.532C319.686 292.532 320.321 292.703 320.896 293.05C321.47 293.396 321.925 293.879 322.26 294.499C322.595 295.118 322.764 295.851 322.764 296.699Z" fill="white"/>
<path d="M366.123 7.61462H309.662C306.472 7.61462 303.887 10.1883 303.887 13.363V33.8012C303.887 36.9752 306.472 39.5493 309.662 39.5493H366.123C369.313 39.5493 371.898 36.9752 371.898 33.8012V13.363C371.898 10.1883 369.313 7.61462 366.123 7.61462Z" fill="#E78683"/>
<path d="M366.123 7.61462H309.662C306.472 7.61462 303.887 10.1883 303.887 13.363V33.8012C303.887 36.9752 306.472 39.5493 309.662 39.5493H366.123C369.313 39.5493 371.898 36.9752 371.898 33.8012V13.363C371.898 10.1883 369.313 7.61462 366.123 7.61462Z" stroke="#E78683"/>
<path d="M321.574 28.6919L327.395 22.5935C327.694 22.2717 327.951 21.9617 328.167 21.6636C328.383 21.3657 328.544 21.0675 328.652 20.7695C328.76 20.4715 328.813 20.1554 328.813 19.8216C328.813 19.5832 328.766 19.3507 328.669 19.1242C328.586 18.8857 328.447 18.6711 328.256 18.4804C328.077 18.2897 327.855 18.1406 327.591 18.0333C327.329 17.9142 327.023 17.8544 326.676 17.8544C326.197 17.8544 325.784 17.9678 325.437 18.1942C325.088 18.4088 324.819 18.7248 324.628 19.1421C324.448 19.5594 324.359 20.0423 324.359 20.5906H322.257C322.257 19.6964 322.425 18.9035 322.76 18.2121C323.107 17.5087 323.61 16.9603 324.269 16.5669C324.94 16.1615 325.753 15.9588 326.711 15.9588C327.442 15.9588 328.077 16.0781 328.616 16.3166C329.155 16.543 329.598 16.8412 329.945 17.2107C330.305 17.5803 330.568 17.9857 330.737 18.4267C330.916 18.8678 331.006 19.297 331.006 19.7144C331.006 20.37 330.844 21.002 330.52 21.61C330.209 22.218 329.796 22.7605 329.28 23.2373L325.706 26.7247H331.167V28.6919H321.574ZM332.434 28.6919L338.254 22.5935C338.553 22.2717 338.812 21.9617 339.027 21.6636C339.242 21.3657 339.404 21.0675 339.511 20.7695C339.62 20.4715 339.674 20.1554 339.674 19.8216C339.674 19.5832 339.626 19.3507 339.53 19.1242C339.447 18.8857 339.308 18.6711 339.117 18.4804C338.937 18.2897 338.715 18.1406 338.452 18.0333C338.188 17.9142 337.883 17.8544 337.536 17.8544C337.057 17.8544 336.643 17.9678 336.296 18.1942C335.949 18.4088 335.678 18.7248 335.487 19.1421C335.308 19.5594 335.218 20.0423 335.218 20.5906H333.116C333.116 19.6964 333.284 18.9035 333.619 18.2121C333.967 17.5087 334.47 16.9603 335.128 16.5669C335.8 16.1615 336.614 15.9588 337.572 15.9588C338.301 15.9588 338.937 16.0781 339.476 16.3166C340.015 16.543 340.457 16.8412 340.806 17.2107C341.165 17.5803 341.428 17.9857 341.596 18.4267C341.775 18.8678 341.865 19.297 341.865 19.7144C341.865 20.37 341.704 21.002 341.381 21.61C341.068 22.218 340.655 22.7605 340.141 23.2373L336.565 26.7247H342.027V28.6919H332.434ZM352.922 24.6144C352.922 25.3417 352.797 25.9736 352.546 26.5101C352.294 27.0465 351.947 27.4937 351.504 27.8514C351.06 28.1971 350.557 28.4593 349.994 28.6382C349.442 28.8052 348.863 28.8885 348.252 28.8885C347.484 28.8885 346.808 28.7873 346.222 28.5845C345.635 28.3819 345.126 28.1136 344.695 27.7798C344.263 27.434 343.887 27.0645 343.564 26.671L344.803 25.151C345.055 25.4728 345.347 25.7709 345.683 26.0451C346.029 26.3073 346.402 26.5219 346.796 26.6889C347.192 26.8439 347.588 26.9214 347.982 26.9214C348.558 26.9214 349.042 26.826 349.438 26.6353C349.832 26.4445 350.133 26.1643 350.336 25.7948C350.551 25.4252 350.659 24.9899 350.659 24.4892C350.659 23.9767 350.539 23.5415 350.299 23.1838C350.06 22.8261 349.737 22.5518 349.331 22.3611C348.921 22.1704 348.473 22.075 347.982 22.075C347.623 22.075 347.263 22.1048 346.904 22.1644C346.557 22.212 346.197 22.3074 345.827 22.4505C345.468 22.5935 345.072 22.7963 344.642 23.0586L346.348 16.1735H352.797V18.0333H347.947L347.156 20.8946C347.467 20.7397 347.79 20.6265 348.126 20.5549C348.461 20.4834 348.803 20.4476 349.15 20.4476C349.845 20.4476 350.48 20.6204 351.054 20.9662C351.629 21.312 352.084 21.7949 352.421 22.4148C352.754 23.0347 352.922 23.7679 352.922 24.6144Z" fill="white"/>
<path d="M64.5686 183.894H8.10656C4.91736 183.894 2.33203 186.468 2.33203 189.642V210.08C2.33203 213.256 4.91736 215.83 8.10656 215.83H64.5686C67.7578 215.83 70.3431 213.256 70.3431 210.08V189.642C70.3431 186.468 67.7578 183.894 64.5686 183.894Z" fill="#FACB86"/>
<path d="M64.5686 183.894H8.10656C4.91736 183.894 2.33203 186.468 2.33203 189.642V210.08C2.33203 213.256 4.91736 215.83 8.10656 215.83H64.5686C67.7578 215.83 70.3431 213.256 70.3431 210.08V189.642C70.3431 186.468 67.7578 183.894 64.5686 183.894Z" stroke="#FACB86"/>
<path d="M20.0156 204.971L25.8363 198.873C26.1358 198.551 26.3932 198.241 26.6088 197.943C26.8244 197.646 26.9862 197.347 27.094 197.049C27.2016 196.751 27.2556 196.434 27.2556 196.102C27.2556 195.863 27.2077 195.631 27.1119 195.404C27.028 195.165 26.8902 194.95 26.6987 194.759C26.519 194.57 26.2974 194.42 26.034 194.313C25.7705 194.194 25.4651 194.134 25.1178 194.134C24.6387 194.134 24.2255 194.248 23.8781 194.474C23.5308 194.688 23.2613 195.004 23.0697 195.421C22.89 195.84 22.8003 196.322 22.8003 196.871H20.6984C20.6984 195.977 20.8661 195.182 21.2013 194.492C21.5487 193.788 22.0517 193.24 22.7104 192.847C23.3811 192.442 24.1955 192.239 25.1537 192.239C25.8842 192.239 26.519 192.357 27.058 192.596C27.5969 192.823 28.0401 193.121 28.3875 193.49C28.7467 193.859 29.0102 194.266 29.1779 194.706C29.3575 195.147 29.4474 195.577 29.4474 195.994C29.4474 196.649 29.2857 197.281 28.9623 197.889C28.6508 198.497 28.2377 199.041 27.7228 199.517L24.1476 203.004H29.6091V204.971H20.0156ZM30.8755 204.971L36.6962 198.873C36.9956 198.551 37.2531 198.241 37.4687 197.943C37.6843 197.646 37.8459 197.347 37.9537 197.049C38.0615 196.751 38.1155 196.434 38.1155 196.102C38.1155 195.863 38.0676 195.631 37.9717 195.404C37.8879 195.165 37.7501 194.95 37.5586 194.759C37.3789 194.57 37.1572 194.42 36.8937 194.313C36.6304 194.194 36.325 194.134 35.9776 194.134C35.4985 194.134 35.0853 194.248 34.738 194.474C34.3906 194.688 34.1211 195.004 33.9296 195.421C33.7499 195.84 33.6601 196.322 33.6601 196.871H31.5581C31.5581 195.977 31.7259 195.182 32.0611 194.492C32.4085 193.788 32.9116 193.24 33.5702 192.847C34.241 192.442 35.0553 192.239 36.0136 192.239C36.7441 192.239 37.3789 192.357 37.9178 192.596C38.4568 192.823 38.8998 193.121 39.2472 193.49C39.6065 193.859 39.87 194.266 40.0377 194.706C40.2174 195.147 40.3071 195.577 40.3071 195.994C40.3071 196.649 40.1455 197.281 39.8221 197.889C39.5107 198.497 39.0975 199.041 38.5825 199.517L35.0074 203.004H40.4689V204.971H30.8755ZM51.3646 200.894C51.3646 201.622 51.2389 202.254 50.9873 202.789C50.7358 203.326 50.3884 203.773 49.9454 204.131C49.5022 204.477 48.9991 204.739 48.4363 204.918C47.8853 205.085 47.3045 205.169 46.6936 205.169C45.927 205.169 45.2505 205.068 44.6636 204.864C44.0767 204.661 43.5677 204.393 43.1366 204.06C42.7054 203.714 42.3282 203.345 42.0048 202.95L43.2444 201.431C43.4959 201.753 43.7892 202.05 44.1247 202.325C44.4719 202.586 44.8432 202.801 45.2385 202.969C45.6338 203.123 46.0289 203.201 46.4242 203.201C46.9991 203.201 47.4841 203.106 47.8794 202.915C48.2746 202.725 48.574 202.444 48.7776 202.074C48.9932 201.705 49.101 201.27 49.101 200.769C49.101 200.257 48.9811 199.82 48.7417 199.463C48.5021 199.105 48.1787 198.831 47.7716 198.641C47.3642 198.45 46.9151 198.355 46.4242 198.355C46.0648 198.355 45.7056 198.384 45.3463 198.443C44.9989 198.492 44.6396 198.587 44.2684 198.731C43.9091 198.873 43.5138 199.077 43.0826 199.339L44.7894 192.452H51.2389V194.313H46.3882L45.5978 197.174C45.9091 197.02 46.2325 196.905 46.5679 196.834C46.9033 196.763 47.2446 196.727 47.5919 196.727C48.2865 196.727 48.9214 196.9 49.4963 197.246C50.0711 197.593 50.5261 198.074 50.8616 198.694C51.1969 199.314 51.3646 200.047 51.3646 200.894Z" fill="white"/>
</svg>
