<svg width="390" height="842" viewBox="0 0 390 842" fill="none" xmlns="http://www.w3.org/2000/svg">
<g clip-path="url(#clip0_16912_2939)">
<g opacity="0.39">
<ellipse cx="3.43909" cy="3.3305" rx="3.43909" ry="3.3305" transform="matrix(3.64013e-09 1 1 -3.64013e-09 -1.03906 82.4734)" fill="#C2C3C5"/>
<ellipse cx="3.43909" cy="3.3305" rx="3.43909" ry="3.3305" transform="matrix(3.64013e-09 1 1 -3.64013e-09 17.2109 69.5505)" fill="#C2C3C5"/>
<ellipse cx="3.43909" cy="3.3305" rx="3.43909" ry="3.3305" transform="matrix(3.64013e-09 1 1 -3.64013e-09 54.5938 109.494)" fill="#C2C3C5"/>
<ellipse cx="3.43909" cy="3.3305" rx="3.43909" ry="3.3305" transform="matrix(3.64013e-09 1 1 -3.64013e-09 170.777 65.2461)" fill="#C2C3C5"/>
<ellipse cx="3.43909" cy="3.3305" rx="3.43909" ry="3.3305" transform="matrix(3.64013e-09 1 1 -3.64013e-09 172.281 92.1301)" fill="#C2C3C5"/>
<ellipse cx="3.43909" cy="3.3305" rx="3.43909" ry="3.3305" transform="matrix(3.64013e-09 1 1 -3.64013e-09 254.859 98.8618)" fill="#C2C3C5"/>
<ellipse cx="3.43909" cy="3.3305" rx="3.43909" ry="3.3305" transform="matrix(3.64013e-09 1 1 -3.64013e-09 243.883 42.1902)" fill="#C2C3C5"/>
<path d="M-98.9586 48.6911L-40.5702 48.4969M-40.5702 48.4969L-40.3464 88.17C-40.3432 88.7395 -39.8658 89.1913 -39.297 89.1631L0.873546 87.1748C1.77075 87.1304 2.15894 86.0174 1.48392 85.4246L-40.5702 48.4969ZM20.2575 73.6463L57.8734 112.24C58.1538 112.527 58.579 112.619 58.9532 112.473L173.227 67.8657C173.872 67.6139 174.572 68.0782 174.59 68.7704L175.305 95.3268C175.319 95.838 175.716 96.2564 176.226 96.2968L257.246 102.714M247.869 44.7458L278.09 -5.20624" stroke="#C2C3C5"/>
<path d="M-98.9586 48.6911L-40.5702 48.4969M-40.5702 48.4969L-40.3464 88.17C-40.3432 88.7395 -39.8658 89.1913 -39.297 89.1631L0.873534 87.1748C1.77076 87.1304 2.15894 86.0174 1.48392 85.4246L-40.5702 48.4969ZM20.2575 73.6463L57.8734 112.24C58.1538 112.527 58.579 112.619 58.9532 112.473L173.227 67.8658C173.872 67.6139 174.572 68.0782 174.59 68.7704L175.305 95.3268C175.319 95.838 175.716 96.2564 176.226 96.2968L257.246 102.714M247.869 44.7458L278.09 -5.20624" stroke="#C2C3C5"/>
<path d="M-98.9586 48.6911L-40.5702 48.4969M-40.5702 48.4969L-40.3464 88.17C-40.3432 88.7395 -39.8658 89.1913 -39.297 89.1631L0.873534 87.1748C1.77076 87.1304 2.15894 86.0174 1.48392 85.4246L-40.5702 48.4969ZM20.2575 73.6463L57.8734 112.24C58.1538 112.527 58.579 112.619 58.9532 112.473L173.227 67.8658C173.872 67.6139 174.572 68.0782 174.59 68.7704L175.305 95.3268C175.319 95.838 175.716 96.2564 176.226 96.2968L257.246 102.714M247.869 44.7458L278.09 -5.20624" stroke="#C2C3C5"/>
</g>
<ellipse cx="284.61" cy="845.371" rx="6.05632" ry="6.44871" transform="rotate(111 284.61 845.371)" fill="#EAEBEC"/>
<ellipse cx="339.434" cy="813.75" rx="5.15093" ry="5.21957" transform="rotate(111 339.434 813.75)" fill="#EAEBEC"/>
<ellipse cx="275.394" cy="794.039" rx="5.15093" ry="5.21957" transform="rotate(111 275.394 794.039)" fill="#EAEBEC"/>
<circle cx="192.353" cy="837.082" r="3.10132" transform="rotate(159 192.353 837.082)" fill="#EAEBEC"/>
<circle cx="257.822" cy="823.02" r="6.20265" transform="rotate(159 257.822 823.02)" fill="#EAEBEC"/>
<circle cx="244.709" cy="785.974" r="6.20265" transform="rotate(159 244.709 785.974)" fill="#EAEBEC"/>
<circle cx="230.251" cy="762.734" r="3.10132" transform="rotate(159 230.251 762.734)" fill="#EAEBEC"/>
<circle cx="250.235" cy="734.023" r="3.10132" transform="rotate(159 250.235 734.023)" fill="#EAEBEC"/>
<circle cx="274.786" cy="763.358" r="3.10132" transform="rotate(159 274.786 763.358)" fill="#EAEBEC"/>
<circle cx="256.603" cy="759.267" r="3.10132" transform="rotate(159 256.603 759.267)" fill="#EAEBEC"/>
<circle cx="326.517" cy="763.987" r="4.65199" transform="rotate(159 326.517 763.987)" fill="#EAEBEC"/>
<circle cx="369.83" cy="693.653" r="5.16887" transform="rotate(159 369.83 693.653)" fill="#EAEBEC"/>
<path d="M283.413 846.417L239.785 939.016L193.76 894.119L283.413 846.417ZM283.413 846.417L256.301 821.943M193.018 837.377L193.39 893.154L256.301 821.943M256.301 821.943L244.412 786.644M256.301 821.943L338.692 813.017M244.412 786.644L338.692 813.017M244.412 786.644L256.899 758.596M338.692 813.017L326.33 763.503M338.692 813.017L413.849 799.669M256.899 758.596L275.266 763.173M256.899 758.596L231.104 763.515M256.899 758.596L250.718 733.84M326.33 763.503L369.905 695.286L407.067 728.635L326.33 763.503ZM326.33 763.503L413.849 799.669M413.849 799.669L426.012 870.298M426.012 870.298L385.365 887.008M426.012 870.298L463.256 836.07M426.012 870.298L472.446 913.376" stroke="#EAEBEC"/>
<circle cx="326.816" cy="763.319" r="8.80397" transform="rotate(159 326.816 763.319)" stroke="#EAEBEC"/>
</g>
<defs>
<clipPath id="clip0_16912_2939">
<rect width="390" height="842" fill="white"/>
</clipPath>
</defs>
</svg>
